<svg xmlns="http://www.w3.org/2000/svg" xmlns:xlink="http://www.w3.org/1999/xlink" id="Layer_1" x="0px" y="0px" viewBox="0 0 34 34" style="enable-background:new 0 0 34 34;" xml:space="preserve"> <style type="text/css"> .st0{fill-rule:evenodd;clip-rule:evenodd;fill:url(#SVGID_1_);} .st1{fill-rule:evenodd;clip-rule:evenodd;fill:url(#SVGID_2_);} .st2{fill:#CCD6E1;} </style> <linearGradient id="SVGID_1_" gradientUnits="userSpaceOnUse" x1="22.5578" y1="17.2915" x2="22.5578" y2="11.9067"> <stop offset="0" style="stop-color:#B0E8CD"></stop> <stop offset="1" style="stop-color:#56CAD8"></stop> </linearGradient> <path class="st0" d="M22.6,11.9c1.5,0,2.7,1.2,2.7,2.7s-1.2,2.7-2.7,2.7c-1.5,0-2.7-1.2-2.7-2.7S21.1,11.9,22.6,11.9z"></path> <linearGradient id="SVGID_2_" gradientUnits="userSpaceOnUse" x1="29.3076" y1="10.5413" x2="29.3076" y2="5.1566"> <stop offset="0" style="stop-color:#B0E8CD"></stop> <stop offset="1" style="stop-color:#56CAD8"></stop> </linearGradient> <path class="st1" d="M29.3,5.2c1.5,0,2.7,1.2,2.7,2.7c0,1.5-1.2,2.7-2.7,2.7c-1.5,0-2.7-1.2-2.7-2.7C26.6,6.4,27.8,5.2,29.3,5.2z"></path> <g> <polygon class="st2" points="12.5,29 2.6,17.7 5.9,14.7 12.5,22.3 17.1,17.1 20.4,20 "></polygon> </g> </svg>