<?xml version="1.0" encoding="utf-8"?>
<!-- Generator: Adobe Illustrator 17.0.0, SVG Export Plug-In . SVG Version: 6.00 Build 0)  -->
<!DOCTYPE svg PUBLIC "-//W3C//DTD SVG 1.1//EN" "http://www.w3.org/Graphics/SVG/1.1/DTD/svg11.dtd">
<svg version="1.1" id="Layer_1" xmlns="http://www.w3.org/2000/svg" xmlns:xlink="http://www.w3.org/1999/xlink" x="0px" y="0px"
	 width="612px" height="612px" viewBox="0 126.322 612 612" enable-background="new 0 126.322 612 612" xml:space="preserve">
<title>Slice 1</title>
<desc>Created with Sketch.</desc>
<g id="Page-1">
	<g id="dashboard">
		
			<linearGradient id="Shape_8_" gradientUnits="userSpaceOnUse" x1="0.9853" y1="792.3744" x2="0.9853" y2="791.3744" gradientTransform="matrix(612 0 0 -465.6522 -297 369168.0312)">
			<stop  offset="0" style="stop-color:#2865B7"/>
			<stop  offset="1" style="stop-color:#34B4E6"/>
		</linearGradient>
		<path id="Shape" fill="url(#Shape_8_)" d="M556.122,662.826H55.878C25.278,662.826,0,637.548,0,606.948V253.052
			c0-30.6,25.278-55.878,55.878-55.878h500.243c30.6,0,55.878,25.278,55.878,55.878v353.896
			C612,637.548,586.722,662.826,556.122,662.826L556.122,662.826z M73.174,237.087c-10.643,0-19.957,9.313-19.957,19.957
			c0,10.643,9.313,19.957,19.957,19.957s19.957-9.313,19.957-19.957C93.13,246.4,83.817,237.087,73.174,237.087L73.174,237.087z
			 M139.696,237.087c-10.643,0-19.957,9.313-19.957,19.957c0,10.643,9.313,19.957,19.957,19.957
			c10.643,0,19.957-9.313,19.957-19.957C159.652,246.4,150.339,237.087,139.696,237.087L139.696,237.087z M206.217,237.087
			c-10.643,0-19.957,9.313-19.957,19.957c0,10.643,9.313,19.957,19.957,19.957c10.643,0,19.957-9.313,19.957-19.957
			C226.174,246.4,216.861,237.087,206.217,237.087L206.217,237.087z M572.087,330.217c0-7.983-5.322-13.304-13.304-13.304H53.217
			c-7.983,0-13.304,5.322-13.304,13.304v279.391c0,7.983,5.322,13.304,13.304,13.304h505.565c7.983,0,13.304-5.322,13.304-13.304
			V330.217L572.087,330.217z"/>
		
			<linearGradient id="Shape_9_" gradientUnits="userSpaceOnUse" x1="0.6618" y1="791.8718" x2="0.6618" y2="790.8718" gradientTransform="matrix(26.6087 0 0 -93.1304 328.3044 74157.4141)">
			<stop  offset="0" style="stop-color:#2865B7"/>
			<stop  offset="1" style="stop-color:#34B4E6"/>
		</linearGradient>
		<path id="Shape_1_" fill="url(#Shape_9_)" d="M345.913,410.043c7.983,0,13.304,5.322,13.304,13.304v66.522
			c0,7.983-5.322,13.304-13.304,13.304c-7.983,0-13.304-5.322-13.304-13.304v-66.522
			C332.609,415.365,337.93,410.043,345.913,410.043L345.913,410.043z"/>
		
			<linearGradient id="Shape_10_" gradientUnits="userSpaceOnUse" x1="0.6618" y1="792.0114" x2="0.6618" y2="791.0114" gradientTransform="matrix(26.6087 0 0 -119.7391 381.5217 95218.1953)">
			<stop  offset="0" style="stop-color:#2865B7"/>
			<stop  offset="1" style="stop-color:#34B4E6"/>
		</linearGradient>
		<path id="Shape_2_" fill="url(#Shape_10_)" d="M399.13,383.435c7.983,0,13.304,5.322,13.304,13.304v93.13
			c0,7.983-5.322,13.304-13.304,13.304c-7.983,0-13.304-5.322-13.304-13.304v-93.13C385.826,388.757,391.148,383.435,399.13,383.435
			L399.13,383.435z"/>
		
			<linearGradient id="Shape_11_" gradientUnits="userSpaceOnUse" x1="0.6618" y1="791.6206" x2="0.6618" y2="790.6206" gradientTransform="matrix(26.6087 0 0 -66.5217 434.7391 53096.6328)">
			<stop  offset="0" style="stop-color:#2865B7"/>
			<stop  offset="1" style="stop-color:#34B4E6"/>
		</linearGradient>
		<path id="Shape_3_" fill="url(#Shape_11_)" d="M452.348,436.652c7.983,0,13.304,5.322,13.304,13.304v39.913
			c0,7.983-5.322,13.304-13.304,13.304c-7.983,0-13.304-5.322-13.304-13.304v-39.913
			C439.043,441.974,444.365,436.652,452.348,436.652L452.348,436.652z"/>
		
			<linearGradient id="Shape_12_" gradientUnits="userSpaceOnUse" x1="0.6618" y1="791.9504" x2="0.6618" y2="790.9504" gradientTransform="matrix(26.6087 0 0 -106.4348 487.9565 84687.8047)">
			<stop  offset="0" style="stop-color:#2865B7"/>
			<stop  offset="1" style="stop-color:#34B4E6"/>
		</linearGradient>
		<path id="Shape_4_" fill="url(#Shape_12_)" d="M505.565,396.739c7.983,0,13.304,5.322,13.304,13.304v79.826
			c0,7.983-5.322,13.304-13.304,13.304s-13.304-5.322-13.304-13.304v-79.826C492.261,402.061,497.583,396.739,505.565,396.739
			L505.565,396.739z"/>
		
			<linearGradient id="Shape_13_" gradientUnits="userSpaceOnUse" x1="0.9577" y1="790.3015" x2="0.9577" y2="789.3015" gradientTransform="matrix(212.8696 0 0 -26.6087 221.8696 21558.6738)">
			<stop  offset="0" style="stop-color:#2865B7"/>
			<stop  offset="1" style="stop-color:#34B4E6"/>
		</linearGradient>
		<path id="Shape_5_" fill="url(#Shape_13_)" d="M332.609,529.783H518.87c7.983,0,13.304,5.322,13.304,13.304
			c0,7.983-5.322,13.304-13.304,13.304H332.609c-7.983,0-13.304-5.322-13.304-13.304
			C319.304,535.104,324.626,529.783,332.609,529.783L332.609,529.783z"/>
		
			<linearGradient id="Shape_14_" gradientUnits="userSpaceOnUse" x1="0.9517" y1="792.1859" x2="0.9517" y2="791.1859" gradientTransform="matrix(186.2609 0 0 -186.2609 9 147936.6719)">
			<stop  offset="0" style="stop-color:#2865B7"/>
			<stop  offset="1" style="stop-color:#34B4E6"/>
		</linearGradient>
		<path id="Shape_6_" fill="url(#Shape_14_)" d="M186.261,383.435c51.887,0,93.13,41.243,93.13,93.13s-41.243,93.13-93.13,93.13
			s-93.13-41.243-93.13-93.13S134.374,383.435,186.261,383.435L186.261,383.435z"/>
		<g id="Group" transform="translate(14.000000, 14.000000)" opacity="0.25">
			<path id="Shape_7_" d="M172.261,369.435c51.887,0,93.13,41.243,93.13,93.13h-93.13V369.435L172.261,369.435z"/>
		</g>
	</g>
</g>
</svg>
